<svg width="34" height="36" viewBox="0 0 34 36" fill="none" xmlns="http://www.w3.org/2000/svg">
<g filter="url(#filter0_d_2_107)">
<path d="M16.9993 0.872315C10.6241 0.871467 5.18956 5.66041 4.16884 12.1785C3.14812 18.6967 6.84266 25.0193 12.8913 27.1057C13.5427 27.2272 13.776 26.8129 13.776 26.4566C13.776 26.1368 13.7655 25.2893 13.7616 24.1624C10.1461 24.9721 9.38255 22.3567 9.38255 22.3567C9.14453 21.5429 8.63283 20.8444 7.94023 20.3878C6.76762 19.5524 8.03014 19.5713 8.03014 19.5713C8.86488 19.6899 9.59955 20.2022 10.0197 20.9586C10.3753 21.6283 10.9744 22.1232 11.6839 22.3333C12.3934 22.5434 13.1545 22.4512 13.7981 22.0774C13.8586 21.3945 14.1519 20.7563 14.6255 20.2771C11.7408 19.9384 8.70765 18.7832 8.70765 13.624C8.69164 12.2896 9.17005 10.9995 10.0444 10.0194C9.6488 8.85787 9.69539 7.58384 10.1747 6.45665C10.1747 6.45665 11.2653 6.09363 13.7473 7.83451C15.876 7.22993 18.1227 7.22993 20.2514 7.83451C22.7347 6.09228 23.824 6.45665 23.824 6.45665C24.3055 7.58331 24.3521 8.85823 23.9543 10.0194C24.8318 10.9995 25.3099 12.2929 25.2884 13.6294C25.2884 18.8021 22.2527 19.9384 19.3576 20.2717C19.9821 20.9331 20.3024 21.8403 20.2371 22.763C20.2371 24.5632 20.2214 26.0153 20.2214 26.4566C20.2214 26.8169 20.4534 27.2353 21.1165 27.103C27.1626 25.0131 30.8532 18.6901 29.8304 12.1737C28.8076 5.65726 23.3732 0.870804 16.9993 0.872315Z" fill="#3730A3"/>
</g>
<defs>
<filter id="filter0_d_2_107" x="0" y="0.872314" width="34" height="34.2557" filterUnits="userSpaceOnUse" color-interpolation-filters="sRGB">
<feFlood flood-opacity="0" result="BackgroundImageFix"/>
<feColorMatrix in="SourceAlpha" type="matrix" values="0 0 0 0 0 0 0 0 0 0 0 0 0 0 0 0 0 0 127 0" result="hardAlpha"/>
<feOffset dy="4"/>
<feGaussianBlur stdDeviation="2"/>
<feComposite in2="hardAlpha" operator="out"/>
<feColorMatrix type="matrix" values="0 0 0 0 0 0 0 0 0 0 0 0 0 0 0 0 0 0 0.25 0"/>
<feBlend mode="normal" in2="BackgroundImageFix" result="effect1_dropShadow_2_107"/>
<feBlend mode="normal" in="SourceGraphic" in2="effect1_dropShadow_2_107" result="shape"/>
</filter>
</defs>
</svg>
